<svg xmlns="http://www.w3.org/2000/svg" xmlns:xlink="http://www.w3.org/1999/xlink" id="Layer_1" x="0px" y="0px" viewBox="0 0 132 39.59" style="enable-background:new 0 0 132 39.59;" xml:space="preserve"><style type="text/css">	.st0{fill:#6772E5;}</style><g>	<path class="st0" d="M25.11,15.51c0-1.03,0.85-1.43,2.25-1.43c2.01,0,4.55,0.61,6.55,1.69V9.57c-2.19-0.87-4.36-1.22-6.55-1.22  c-5.36,0-8.93,2.8-8.93,7.48c0,7.29,10.04,6.13,10.04,9.28c0,1.22-1.06,1.61-2.54,1.61c-2.19,0-5-0.9-7.22-2.11v6.29  c2.46,1.06,4.94,1.51,7.22,1.51c5.5,0,9.28-2.72,9.28-7.45C35.18,17.07,25.11,18.47,25.11,15.51z M42.98,3.07l-6.45,1.37  l-0.03,21.17c0,3.91,2.93,6.79,6.85,6.79c2.17,0,3.75-0.4,4.62-0.87v-5.36c-0.85,0.34-5.02,1.56-5.02-2.35v-9.38h5.02V8.8h-5.02  L42.98,3.07z M56.19,10.76L55.77,8.8h-5.71v23.12h6.61V16.25c1.56-2.03,4.2-1.66,5.02-1.37V8.8C60.85,8.48,57.75,7.9,56.19,10.76z   M63.3,8.8h6.63v23.12H63.3V8.8z M63.3,6.79l6.63-1.43V0L63.3,1.4V6.79z M83.73,8.35c-2.59,0-4.26,1.22-5.18,2.06l-0.34-1.64H72.4  v30.82l6.61-1.4l0.03-7.48c0.95,0.69,2.35,1.67,4.68,1.67c4.73,0,9.04-3.81,9.04-12.18C92.72,12.53,88.36,8.35,83.73,8.35z   M82.15,26.56c-1.56,0-2.48-0.56-3.12-1.24L79,15.51c0.69-0.77,1.64-1.3,3.15-1.3c2.4,0,4.07,2.7,4.07,6.16  C86.22,23.92,84.58,26.56,82.15,26.56z M113.57,20.46c0-6.77-3.28-12.1-9.54-12.1c-6.29,0-10.1,5.34-10.1,12.05  c0,7.95,4.49,11.97,10.94,11.97c3.15,0,5.52-0.71,7.32-1.72v-5.29c-1.8,0.9-3.86,1.45-6.47,1.45c-2.56,0-4.84-0.9-5.13-4.02h12.92  C113.52,22.46,113.57,21.09,113.57,20.46z M100.52,17.94c0-2.99,1.82-4.23,3.49-4.23c1.61,0,3.33,1.24,3.33,4.23H100.52  L100.52,17.94z"></path></g><g></g></svg>