<svg xmlns="http://www.w3.org/2000/svg" xmlns:xlink="http://www.w3.org/1999/xlink" id="Layer_1" x="0px" y="0px" viewBox="0 0 132 39.59" style="enable-background:new 0 0 132 39.59;" xml:space="preserve"><style type="text/css">	.st0{fill-rule:evenodd;clip-rule:evenodd;fill:#009EE3;}	.st1{fill-rule:evenodd;clip-rule:evenodd;fill:#113984;}	.st2{fill-rule:evenodd;clip-rule:evenodd;fill:#172C70;}</style><g>	<path class="st0" d="M11.52,11.33h9.02c4.84,0,6.67,2.45,6.38,6.05c-0.47,5.95-4.06,9.24-8.83,9.24h-2.41  c-0.65,0-1.09,0.43-1.27,1.61l-1.02,6.82c-0.07,0.44-0.3,0.7-0.65,0.73H7.08c-0.53,0-0.72-0.41-0.58-1.29l3.46-21.87  C10.08,11.75,10.56,11.33,11.52,11.33z"></path>	<path class="st1" d="M50.68,10.93c3.04,0,5.85,1.65,5.47,5.77c-0.47,4.89-3.09,7.6-7.22,7.61h-3.61c-0.52,0-0.77,0.42-0.91,1.29  l-0.7,4.44c-0.1,0.67-0.45,1-0.96,1H39.4c-0.54,0-0.72-0.34-0.6-1.11l2.77-17.8c0.14-0.88,0.47-1.2,1.06-1.2H50.68L50.68,10.93z   M45.21,20.46h2.74c1.71-0.07,2.85-1.25,2.96-3.39c0.07-1.32-0.82-2.27-2.24-2.26l-2.58,0.01L45.21,20.46L45.21,20.46z   M65.28,29.67c0.31-0.28,0.62-0.42,0.58-0.08l-0.11,0.82c-0.06,0.43,0.11,0.66,0.51,0.66h2.99c0.5,0,0.75-0.2,0.87-0.98l1.84-11.54  c0.09-0.58-0.05-0.86-0.49-0.86h-3.28c-0.3,0-0.44,0.17-0.52,0.62l-0.12,0.71c-0.06,0.37-0.23,0.44-0.39,0.06  c-0.56-1.32-1.98-1.91-3.96-1.86c-4.6,0.1-7.71,3.59-8.04,8.07c-0.26,3.46,2.23,6.19,5.5,6.19C63.03,31.47,64.09,30.77,65.28,29.67  L65.28,29.67L65.28,29.67z M62.78,27.89c-1.98,0-3.36-1.58-3.08-3.52c0.29-1.94,2.14-3.52,4.12-3.52c1.98,0,3.36,1.58,3.08,3.52  S64.76,27.89,62.78,27.89L62.78,27.89z M77.8,17.65h-3.03c-0.62,0-0.88,0.47-0.68,1.04l3.76,11l-3.69,5.24  c-0.31,0.44-0.07,0.84,0.37,0.84h3.4c0.4,0.05,0.8-0.15,1.01-0.5L90.5,18.69c0.36-0.51,0.19-1.05-0.4-1.05h-3.22  c-0.55,0-0.77,0.22-1.09,0.68l-4.82,6.99l-2.15-7C78.7,17.88,78.38,17.65,77.8,17.65L77.8,17.65z"></path>	<path class="st0" d="M102.52,10.93c3.04,0,5.85,1.65,5.47,5.77c-0.47,4.89-3.09,7.6-7.22,7.61h-3.61c-0.52,0-0.77,0.42-0.91,1.29  l-0.7,4.44c-0.1,0.67-0.45,1-0.96,1h-3.36c-0.54,0-0.72-0.34-0.6-1.11l2.78-17.8c0.14-0.88,0.47-1.2,1.06-1.2L102.52,10.93  L102.52,10.93z M97.05,20.46h2.74c1.71-0.07,2.85-1.25,2.96-3.39c0.07-1.32-0.82-2.27-2.24-2.26l-2.58,0.01L97.05,20.46  L97.05,20.46z M117.13,29.67c0.31-0.28,0.62-0.42,0.58-0.08l-0.11,0.82c-0.06,0.43,0.11,0.66,0.51,0.66h2.99  c0.5,0,0.75-0.2,0.87-0.98l1.84-11.54c0.09-0.58-0.05-0.86-0.49-0.86h-3.28c-0.3,0-0.44,0.17-0.52,0.62l-0.12,0.71  c-0.06,0.37-0.23,0.44-0.39,0.06c-0.56-1.32-1.98-1.91-3.96-1.86c-4.6,0.1-7.71,3.59-8.04,8.07c-0.26,3.46,2.23,6.19,5.5,6.19  c2.37,0,3.44-0.7,4.63-1.79l0,0L117.13,29.67z M114.63,27.89c-1.98,0-3.36-1.58-3.08-3.52s2.14-3.52,4.12-3.52s3.36,1.58,3.08,3.52  S116.61,27.89,114.63,27.89L114.63,27.89z M128.4,31.09h-3.45c-0.22,0.01-0.42-0.16-0.43-0.39c0-0.03,0-0.05,0-0.08l3.03-19.18  c0.06-0.27,0.3-0.46,0.57-0.47h3.45c0.22-0.01,0.42,0.16,0.43,0.39c0,0.03,0,0.05,0,0.08l-3.03,19.18  C128.91,30.9,128.67,31.09,128.4,31.09L128.4,31.09z"></path>	<path class="st1" d="M5.88,3.8h9.03c2.54,0,5.56,0.08,7.58,1.86c1.35,1.19,2.06,3.08,1.89,5.12c-0.55,6.89-4.68,10.76-10.21,10.76  H9.71c-0.76,0-1.26,0.5-1.47,1.86L7,31.33c-0.08,0.51-0.3,0.81-0.7,0.85H0.73c-0.62,0-0.84-0.47-0.68-1.49l4-25.38  C4.22,4.29,4.78,3.8,5.88,3.8z"></path>	<path class="st2" d="M8.37,22.61l1.58-9.98c0.14-0.88,0.62-1.29,1.57-1.29h9.02c1.49,0,2.7,0.23,3.65,0.66  c-0.91,6.14-4.88,9.55-10.07,9.55H9.67C9.07,21.54,8.63,21.84,8.37,22.61z"></path></g><g></g></svg>