<svg xmlns="http://www.w3.org/2000/svg" xmlns:xlink="http://www.w3.org/1999/xlink" id="Layer_1" x="0px" y="0px" viewBox="0 0 132 39.59" style="enable-background:new 0 0 132 39.59;" xml:space="preserve"><style type="text/css">	.st0{fill:#8DB849;}	.st1{fill:#5A863E;}	.st2{fill:#FFFFFE;}	.st3{fill:#1A1919;}</style><g>	<path class="st0" d="M14.99,2.15c0.26,0,0.4,0.13,0.66,0.26c-1.59,0.66-3.17,2.38-3.96,6.08L8.78,9.29  C9.71,6.65,11.56,2.15,14.99,2.15z M16.45,3.48c0.26,0.79,0.53,1.72,0.53,3.17c0,0.13,0,0.13,0,0.26l-3.83,1.06  C13.94,5.19,15.26,4,16.45,3.48z M19.88,5.85l-1.72,0.53c0-0.13,0-0.26,0-0.4c0-1.19-0.13-2.11-0.4-2.91  C18.69,3.34,19.49,4.53,19.88,5.85z M28.47,7.97c0-0.13-0.13-0.26-0.26-0.26c-0.26,0-3.04-0.26-3.04-0.26s-1.98-1.98-2.25-2.11  c-0.26-0.26-0.66-0.13-0.79-0.13c0,0-0.4,0.13-1.06,0.4c-0.66-1.85-1.85-3.57-3.83-3.57h-0.13c-0.53-0.79-1.32-1.06-1.98-1.06  c-4.76-0.13-7,5.81-7.8,8.85c-1.06,0.26-2.11,0.66-3.3,1.06c-1.06,0.26-1.06,0.4-1.19,1.32C2.7,12.86,0.06,33.74,0.06,33.74  l21.01,3.96l11.36-2.51C32.44,35.19,28.47,8.23,28.47,7.97z"></path>	<path class="st1" d="M28.07,7.7c-0.13,0-2.91-0.26-2.91-0.26s-1.98-1.98-2.25-2.11c-0.13-0.13-0.13-0.13-0.26-0.13L21.07,37.7  l11.36-2.51c0,0-3.96-26.96-3.96-27.22C28.47,7.84,28.21,7.7,28.07,7.7"></path>	<path class="st2" d="M17.24,14.05l-1.45,4.23c0,0-1.19-0.66-2.78-0.66c-2.25,0-2.38,1.32-2.38,1.72c0,1.85,5.02,2.64,5.02,7.14  c0,3.57-2.25,5.81-5.29,5.81c-3.57,0-5.42-2.25-5.42-2.25l0.93-3.17c0,0,1.85,1.59,3.44,1.59c1.06,0,1.45-0.79,1.45-1.45  c0-2.51-4.1-2.64-4.1-6.74c0-3.44,2.51-6.74,7.4-6.74C16.31,13.39,17.24,14.05,17.24,14.05"></path>	<path class="st3" d="M45.78,21.84c-1.19-0.66-1.72-1.19-1.72-1.85c0-0.93,0.79-1.45,2.11-1.45c1.45,0,2.78,0.66,2.78,0.66  l1.06-3.17c0,0-0.93-0.79-3.7-0.79c-3.96,0-6.61,2.25-6.61,5.42c0,1.85,1.32,3.17,2.91,4.1c1.32,0.79,1.85,1.32,1.85,2.11  c0,0.79-0.66,1.59-1.98,1.59c-1.85,0-3.7-0.93-3.7-0.93l-1.06,3.17c0,0,1.59,1.06,4.36,1.06c3.96,0,6.87-1.98,6.87-5.55  C48.95,24.22,47.5,22.77,45.78,21.84 M61.77,15.1c-1.98,0-3.57,0.93-4.76,2.38l0,0l1.72-8.99h-4.49l-4.36,22.86h4.49l1.45-7.8  c0.53-2.91,2.11-4.76,3.57-4.76c1.06,0,1.45,0.66,1.45,1.72c0,0.66,0,1.32-0.13,1.98L59,31.49h4.49l1.72-9.25  c0.13-0.93,0.26-2.11,0.26-2.91C65.47,16.69,64.15,15.1,61.77,15.1 M73.27,28.19c-1.59,0-2.11-1.32-2.11-2.91  c0-2.51,1.32-6.74,3.7-6.74c1.59,0,2.11,1.32,2.11,2.64C76.97,24.09,75.65,28.19,73.27,28.19z M75.51,15.1  c-5.42,0-8.99,4.89-8.99,10.31c0,3.44,2.11,6.21,6.21,6.21c5.29,0,8.85-4.76,8.85-10.31C81.59,18.14,79.74,15.1,75.51,15.1z   M88.73,28.32c-1.19,0-1.85-0.66-1.85-0.66l0.79-4.23c0.53-2.78,1.98-4.63,3.57-4.63c1.32,0,1.85,1.32,1.85,2.51  C92.96,24.22,91.24,28.32,88.73,28.32z M93.09,15.1c-3.04,0-4.76,2.64-4.76,2.64l0,0l0.26-2.38h-3.96  c-0.13,1.59-0.53,4.1-0.93,5.95L80.54,37.7h4.49l1.19-6.61h0.13c0,0,0.93,0.53,2.64,0.53c5.29,0,8.72-5.42,8.72-10.84  C97.71,17.88,96.39,15.1,93.09,15.1z M104.06,8.76c-1.45,0-2.51,1.19-2.51,2.64c0,1.32,0.79,2.25,2.11,2.25l0,0  c1.45,0,2.64-0.93,2.64-2.64C106.3,9.69,105.38,8.76,104.06,8.76 M97.85,31.36h4.49l3.04-15.86h-4.49L97.85,31.36z M116.74,15.5  h-3.17l0.13-0.79c0.26-1.59,1.19-2.91,2.64-2.91c0.79,0,1.45,0.26,1.45,0.26l0.92-3.57c0,0-0.79-0.4-2.38-0.4  c-1.59,0-3.17,0.4-4.36,1.45c-1.59,1.32-2.25,3.17-2.64,5.02l-0.13,0.79h-2.11l-0.66,3.44h2.11l-2.38,12.55h4.49l2.38-12.55h3.04  L116.74,15.5z M127.45,15.5c0,0-2.78,7-4.1,10.84l0,0c-0.13-1.19-1.06-10.84-1.06-10.84h-4.76l2.64,14.54c0,0.26,0,0.53-0.13,0.79  c-0.53,1.06-1.45,1.98-2.38,2.64c-0.79,0.66-1.85,1.06-2.51,1.32l1.19,3.83c0.92-0.13,2.78-0.93,4.36-2.38  c1.98-1.85,3.96-4.89,5.81-8.85l5.42-11.76L127.45,15.5z"></path></g><g></g></svg>