<svg xmlns="http://www.w3.org/2000/svg" xmlns:xlink="http://www.w3.org/1999/xlink" id="Layer_1" x="0px" y="0px" viewBox="0 0 132 39.59" style="enable-background:new 0 0 132 39.59;" xml:space="preserve"><style type="text/css">	.st0{fill-rule:evenodd;clip-rule:evenodd;fill:#FFFFFF;}	.st1{fill-rule:evenodd;clip-rule:evenodd;fill:#333366;}</style><g>	<polygon class="st0" points="23.33,28.1 26.85,11.49 3.53,11.49 0.01,28.1 23.33,28.1  "></polygon>	<path class="st1" d="M17.35,14.98c2.71,0.63,2.78,1.3,2.78,1.3c1.76,0,2.22,0,2.53,0.32c1.02,0.95-0.7,3.27-0.7,3.27  C21.75,20.01,2.33,27.6,2.33,27.6h20.44l3.27-15.44H4.09C4.09,12.16,17.03,14.91,17.35,14.98L17.35,14.98z"></path>	<path class="st1" d="M19.36,17.23c-0.28,0.14-1.13,0.28-1.41,0.32c-0.28,0.04-0.42,0.04-0.42,0.11c0,0.11,0.39,0.07,0.53,0.07  c0.63,0,3.13-0.18,3.73-0.07c0.46,0.07-0.07,0.98-0.21,1.55c-0.04,0.21,0.11,0.11,0.18,0c0.18-0.28,0.67-1.2,0.7-1.55  c0.07-0.7-0.42-0.81-1.27-0.81h-1.3c-0.11,0-0.14,0.04-0.18,0.11C19.6,17.05,19.43,17.16,19.36,17.23L19.36,17.23z"></path>	<path class="st1" d="M11.27,22.43L0.82,27.6l2.53-11.85l0,0H13.9c0.18,0,5.66,0,5.77,1.09h-9.5l1.48,4.5  c1.69-0.81,5.84-2.5,8.34-2.6c1.06-0.04,1.48,0.14,1.27,0.28c-0.14,0.07-1.16,0.21-1.97,0.42c-1.41,0.35-1.48,0.35-2.95,0.84  C14.68,20.85,13.31,21.48,11.27,22.43L11.27,22.43z"></path>	<path class="st1" d="M33.15,27.96c-4.08,0-6.51-1.62-5.7-5.24c1.34-6.26,2.22-10.45,2.22-10.45h3.41c0,0-2.08,9.64-2.01,9.43  c-0.53,2.39,0,3.83,2.6,3.83c2.5,0,3.76-1.44,4.29-3.83c0.32-1.37,2.01-9.43,2.01-9.43h3.41c-2.29,10.45,0,0-2.25,10.45  C40.29,26.3,37.19,27.96,33.15,27.96L33.15,27.96z"></path>	<path class="st1" d="M61.6,21.8c-0.53,0-1.65-0.07-2.22-0.18l0.42-2.22c0.42,0.04,0.98,0.11,1.51,0.11c2.32,0,3.17-1.58,3.34-2.53  c0.35-1.69-0.49-2.29-1.72-2.29h-2.78l-2.74,12.98H54l3.27-15.41h7.39c3.34,0,3.73,2.92,3.31,4.85  C67.34,20.01,64.63,21.8,61.6,21.8L61.6,21.8z"></path>	<path class="st1" d="M54.39,14.73h-3.62c-1.86,0-2.67,0.39-2.85,1.13c-0.53,2.46,6.12,4.4,5.49,8.2c-0.35,2.11-2.18,3.62-6.44,3.62  h-5.21l0.53-2.46h4.15c1.3,0,2.88,0.07,3.17-1.23c0.49-2.22-6.05-4.4-5.56-8.09c0.32-2.22,2.29-3.62,6.26-3.62l4.57,0L54.39,14.73  L54.39,14.73z"></path>	<path class="st1" d="M79.75,14.73h-3.62c-1.86,0-2.67,0.39-2.85,1.13c-0.53,2.46,6.12,4.4,5.49,8.2c-0.35,2.11-2.18,3.62-6.44,3.62  h-5.21l0.53-2.46h4.19c1.3,0,2.88,0.07,3.17-1.23c0.49-2.22-6.05-4.4-5.56-8.09c0.32-2.22,2.29-3.62,6.26-3.62l4.57,0L79.75,14.73  L79.75,14.73z"></path>	<path class="st1" d="M80.91,24.93c-0.74,0-1.37,0.6-1.37,1.37c0,0.74,0.6,1.37,1.37,1.37c0.74,0,1.37-0.6,1.37-1.37  C82.29,25.53,81.65,24.93,80.91,24.93L80.91,24.93z"></path>	<polygon class="st1" points="131.99,12.2 128.65,27.64 125.8,27.64 128.33,16.17 121.54,27.64 118.62,27.64 117.01,16.91   114.65,27.64 111.83,27.64 115.11,12.2 119.19,12.2 120.91,23.56 127.52,12.2 131.99,12.2  "></polygon>	<path class="st1" d="M89.92,27.96c-2.04,0-3.87-0.46-5.21-1.44c-1.34-0.98-2.15-2.53-2.15-4.61c0-0.63,0.07-1.3,0.25-2.04  c1.13-5.52,5.73-7.99,10.41-7.99c1.13,0,2.36,0.14,3.45,0.35l0.25,0.04l-0.56,2.5l-0.21-0.04c-0.77-0.07-1.3-0.14-2.01-0.14  c-0.63,0-1.23,0.04-1.9,0.11c-1.65,0.25-2.15,0.53-3.06,1.13c-1.37,0.84-2.57,2.29-2.99,4.19c-0.11,0.49-0.18,0.95-0.18,1.37  c0,1.37,0.56,2.32,1.55,2.95c0.95,0.63,2.36,0.98,3.94,0.98c0.95,0,1.41-0.04,2.32-0.14l0.35-0.04l-0.53,2.43l-0.18,0.04  C92.21,27.82,91.22,27.96,89.92,27.96L89.92,27.96L89.92,27.96z"></path>	<path class="st1" d="M105.47,12.16c-4.71,0-8.62,2.46-9.74,7.84c-0.91,4.33,1.72,7.88,6.4,7.88c4.75,0,8.55-2.36,9.74-7.88  C112.78,15.5,110.11,12.16,105.47,12.16L105.47,12.16z M108.7,20.04c-0.74,3.87-3.06,5.52-5.98,5.52c-2.88,0-4.47-2.5-3.94-5.52  c0.7-3.8,3.1-5.49,5.98-5.49C107.65,14.52,109.3,16.88,108.7,20.04L108.7,20.04z"></path></g><g></g></svg>