<svg xmlns="http://www.w3.org/2000/svg" xmlns:xlink="http://www.w3.org/1999/xlink" id="Layer_1" x="0px" y="0px" viewBox="0 0 132 39.59" style="enable-background:new 0 0 132 39.59;" xml:space="preserve"><style type="text/css">	.st0{fill-rule:evenodd;clip-rule:evenodd;fill:#FF8C00;}	.st1{fill:#FF8C00;}	.st2{fill:#003A9B;}</style><g></g><g>	<polygon class="st0" points="0,14.51 2.48,9.09 10.68,9.09 10.68,30.5 5.25,30.5 5.25,14.51  "></polygon>	<polygon class="st1" points="12.38,9.09 12.38,14.52 22.34,14.52 14.82,30.5 20.2,30.5 30.16,9.09  "></polygon>	<polygon class="st2" points="28.4,19.69 23.37,30.5 28.4,30.5  "></polygon>	<polygon class="st2" points="30.83,14.52 33.31,9.09 49.65,9.09 49.65,14.52 43.39,14.52 43.39,30.5 38.1,30.5 38.1,14.52  "></polygon>	<path class="st2" d="M69.15,16.92c0-3.78-2.04-7.83-8.15-7.83c-6.11,0-9.68,0-9.68,0V30.5h5.4v-6h5.38l1.69,6h5.36l-2.3-8.11  C66.85,22.39,69.15,20.7,69.15,16.92z M62.93,19.03c-0.48,0.48-1.14,0.77-1.87,0.77h-4.33v-5.28h4.33c1.46,0,2.64,1.18,2.64,2.64  C63.7,17.89,63.4,18.55,62.93,19.03z"></path>	<path class="st2" d="M85.26,9.09h-8.5L70.79,30.5h5.32l1.06-3.51h7.65l1.09,3.51h5.37L85.26,9.09z M78.73,21.59l2.3-8.36l2.35,8.36  H78.73z"></path>	<path class="st2" d="M105.3,18.14v-2.79c0-0.46-0.37-0.83-0.83-0.83h-6.2c-0.46,0-0.83,0.37-0.83,0.83v8.92  c0,0.46,0.37,0.83,0.83,0.83h6.2c0.46,0,0.83-0.37,0.83-0.83v-2.69h5.36v4.7c0,2.33-1.89,4.22-4.22,4.22H96.29  c-2.33,0-4.22-1.89-4.22-4.22V13.3c0-2.33,1.89-4.22,4.22-4.22h10.16c2.33,0,4.22,1.89,4.22,4.22v4.83H105.3z"></path>	<polygon class="st2" points="113.32,9.09 113.32,30.5 118.77,30.5 118.77,27.42 120.93,24.45 125.28,30.5 132,30.5 124.2,19.9   132,9.09 125.38,9.09 118.75,18.19 118.75,9.09  "></polygon></g></svg>