<svg xmlns="http://www.w3.org/2000/svg" xmlns:xlink="http://www.w3.org/1999/xlink" id="Layer_1" x="0px" y="0px" viewBox="0 0 132 39.59" style="enable-background:new 0 0 132 39.59;" xml:space="preserve"><style type="text/css">	.st0{fill:#26536B;}	.st1{fill:#0AA9DF;}	.st2{fill:#0884AF;}	.st3{fill:#B0CB0A;}	.st4{fill:#86B626;}</style><g>	<path class="st0" d="M11.58,13.53H7.13v8.55c0,0.73,0.16,1.27,0.49,1.57c0.33,0.33,0.84,0.49,1.49,0.54  c0.65,0.03,1.46,0.03,2.44-0.03v3.45c-2.96,0.35-5.07,0.11-6.35-0.76c-1.27-0.87-1.93-2.47-1.93-4.8v-8.55H0V9.79h3.28V5.94  L7.13,4.8v4.99h4.42v3.74H11.58z"></path>	<path class="st0" d="M27.91,9.82h3.85v17.8h-3.85v-2.58c-1.46,2.01-3.53,3.04-6.24,3.04c-2.44,0-4.56-0.92-6.29-2.71  c-1.74-1.82-2.6-4.04-2.6-6.65c0-2.63,0.87-4.86,2.6-6.67c1.74-1.82,3.82-2.71,6.29-2.71c2.71,0,4.8,1,6.24,2.98V9.82z   M18.23,22.81c1.06,1.09,2.41,1.63,4.04,1.63s2.96-0.54,4.04-1.63c1.06-1.09,1.6-2.44,1.6-4.07c0-1.63-0.54-2.98-1.6-4.07  s-2.41-1.63-4.04-1.63s-2.96,0.54-4.04,1.63c-1.06,1.09-1.6,2.44-1.6,4.07C16.63,20.37,17.14,21.73,18.23,22.81z"></path>	<path class="st0" d="M64.67,9.82h3.85v17.8h-3.85v-2.58c-1.46,2.01-3.53,3.04-6.24,3.04c-2.44,0-4.56-0.92-6.29-2.71  c-1.74-1.82-2.6-4.04-2.6-6.65c0-2.63,0.87-4.86,2.6-6.67c1.74-1.82,3.82-2.71,6.29-2.71c2.71,0,4.8,1,6.24,2.98V9.82z   M55.01,22.81c1.06,1.09,2.41,1.63,4.04,1.63s2.96-0.54,4.04-1.63c1.06-1.09,1.6-2.44,1.6-4.07c0-1.63-0.54-2.98-1.6-4.07  c-1.06-1.09-2.41-1.63-4.04-1.63s-2.96,0.54-4.04,1.63c-1.06,1.09-1.6,2.44-1.6,4.07C53.41,20.37,53.93,21.73,55.01,22.81z"></path>	<path class="st0" d="M82.41,9.36c2.44,0,4.56,0.92,6.29,2.71c1.74,1.82,2.6,4.04,2.6,6.65c0,2.63-0.87,4.86-2.6,6.67  c-1.74,1.82-3.82,2.71-6.29,2.71c-2.71,0-4.8-1-6.24-2.98v9.66h-3.85V9.85h3.85v2.58C77.61,10.39,79.7,9.36,82.41,9.36z   M77.77,22.81c1.06,1.09,2.41,1.63,4.04,1.63c1.63,0,2.96-0.54,4.04-1.63c1.06-1.09,1.6-2.44,1.6-4.07c0-1.63-0.54-2.98-1.6-4.07  s-2.41-1.63-4.04-1.63c-1.63,0-2.96,0.54-4.04,1.63c-1.06,1.09-1.6,2.44-1.6,4.07C76.15,20.37,76.69,21.73,77.77,22.81z"></path>	<path class="st0" d="M108.24,9.82h3.85v17.8h-3.85v-2.58c-1.46,2.01-3.53,3.04-6.24,3.04c-2.44,0-4.56-0.92-6.29-2.71  c-1.74-1.82-2.6-4.04-2.6-6.65c0-2.63,0.87-4.86,2.6-6.67c1.74-1.82,3.82-2.71,6.29-2.71c2.71,0,4.8,1,6.24,2.98V9.82z   M98.55,22.81c1.06,1.09,2.41,1.63,4.04,1.63c1.63,0,2.96-0.54,4.04-1.63c1.06-1.09,1.6-2.44,1.6-4.07c0-1.63-0.54-2.98-1.6-4.07  c-1.06-1.09-2.41-1.63-4.04-1.63c-1.63,0-2.96,0.54-4.04,1.63c-1.06,1.09-1.6,2.44-1.6,4.07C96.95,20.37,97.49,21.73,98.55,22.81z"></path>	<path class="st0" d="M127.9,9.82h4.1l-6.86,18.39c-1.71,4.61-4.61,6.78-8.71,6.56v-3.61c1.22,0.08,2.2-0.19,2.93-0.76  c0.73-0.57,1.36-1.49,1.82-2.71l0.19-0.35l-7.57-17.5h4.2l5.32,12.94L127.9,9.82z"></path>	<path class="st1" d="M45.82,9.82l-2.58,3.64l0,0l-1.71,2.39c-0.87,1.19,0,2.85,1.46,2.85c0.6,0,1.14-0.27,1.46-0.76l3.99-5.56  l1.84-2.55H45.82z"></path>	<path class="st2" d="M35.24,9.82v3.64h8l2.58-3.64H35.24z"></path>	<path class="st3" d="M40.12,24.01l0.49-0.71l1.25-1.74c0.87-1.19,0-2.88-1.49-2.88c-0.6,0-1.14,0.27-1.46,0.76l-4.04,5.62  l-1.87,2.58h4.61L40.12,24.01L40.12,24.01z"></path>	<path class="st4" d="M48.8,24.01h-8.65l-2.52,3.64H48.8V24.01z"></path></g><g></g></svg>