<svg xmlns="http://www.w3.org/2000/svg" xmlns:xlink="http://www.w3.org/1999/xlink" id="Layer_1" x="0px" y="0px" viewBox="0 0 1500 1500" style="enable-background:new 0 0 1500 1500;" xml:space="preserve"><style type="text/css">	.st0{fill:url(#SVGID_1_);}	.st1{fill:url(#SVGID_00000073711914357904141110000001628385757158556581_);}	.st2{fill:url(#SVGID_00000027580485488434979890000001922534340208948414_);}	.st3{fill:url(#SVGID_00000109744991084983363160000005130468646688543104_);}	.st4{fill:url(#SVGID_00000097461369920401801140000005003086683657672845_);}	.st5{fill:url(#SVGID_00000154418763510044059770000005616566588710017192_);}	.st6{fill:url(#SVGID_00000034077658498034095600000015857219969658625974_);}	.st7{fill:url(#SVGID_00000126319496876074640530000017213134805950384518_);}	.st8{fill:url(#SVGID_00000116925114637142161830000009053266002537404088_);}	.st9{fill:url(#SVGID_00000069383728778389959740000001896388252400446126_);}	.st10{fill:url(#SVGID_00000137108302511567692150000006552309732653622433_);}	.st11{fill:url(#SVGID_00000062900989660812656970000006416708444699430584_);}	.st12{fill:url(#SVGID_00000142879849435520062390000005333302172142421639_);}	.st13{fill:url(#SVGID_00000018230202880997067230000017450289273858492606_);}</style><g>	<g>					<linearGradient id="SVGID_1_" gradientUnits="userSpaceOnUse" x1="2510.0347" y1="-391.6276" x2="2510.0347" y2="-209.4562" gradientTransform="matrix(1 0 0 1 0 476)">			<stop offset="0" style="stop-color:#5190E6"></stop>			<stop offset="1" style="stop-color:#1DE1DA"></stop>		</linearGradient>		<polygon class="st0" points="2602.9,170 2510,262.8 2417.1,170 2510,77.1   "></polygon>					<linearGradient id="SVGID_00000013904399410104798910000000722946844971938218_" gradientUnits="userSpaceOnUse" x1="2510.0347" y1="777.5236" x2="2510.0347" y2="933.2028" gradientTransform="matrix(1 0 0 1 0 476)">			<stop offset="0" style="stop-color:#3BB4B7"></stop>			<stop offset="1" style="stop-color:#42E596"></stop>		</linearGradient>		<polygon style="fill:url(#SVGID_00000013904399410104798910000000722946844971938218_);" points="2602.9,1334.4 2510,1427.3    2417.1,1334.4 2510,1241.5   "></polygon>					<linearGradient id="SVGID_00000039110092533157167800000005381204577698052765_" gradientUnits="userSpaceOnUse" x1="2510.6848" y1="-135.6394" x2="2510.6848" y2="721.3606" gradientTransform="matrix(1 0 0 1 0 476)">			<stop offset="0" style="stop-color:#3BB4B7"></stop>			<stop offset="1" style="stop-color:#42E596"></stop>		</linearGradient>					<rect x="2446.3" y="323.7" style="fill:url(#SVGID_00000039110092533157167800000005381204577698052765_);" width="128.7" height="857"></rect>	</g>			<linearGradient id="SVGID_00000105411660189170103310000015074281478787995274_" gradientUnits="userSpaceOnUse" x1="3101.968" y1="-129.4479" x2="3101.968" y2="752.0486" gradientTransform="matrix(1 0 0 1 0 476)">		<stop offset="0" style="stop-color:#3CB7B5"></stop>		<stop offset="1" style="stop-color:#41E298"></stop>	</linearGradient>	<path style="fill:url(#SVGID_00000105411660189170103310000015074281478787995274_);" d="M2664.3,323.7v129.2H3126  c0,0,105.9,3.1,181.6,73.2s112.3,155.3,101.2,261.2s-95.5,243.5-274,263.6h-251.2v129.7h238.7c0,0,181.6,9.7,319.7-155.3  s97.6-344.6,69.5-428.6c-28.1-84-125.6-198.2-229.4-237.7c0,0-68.5-34.2-159.8-35.3H2664.3L2664.3,323.7z"></path>	<g>					<linearGradient id="SVGID_00000183952237116979392150000005983085905255621526_" gradientUnits="userSpaceOnUse" x1="2983.3557" y1="117.5205" x2="3067.4226" y2="450.6743" gradientTransform="matrix(1 0 0 1 0 476)">			<stop offset="0" style="stop-color:#5B80E9"></stop>			<stop offset="1" style="stop-color:#1DE1DA"></stop>		</linearGradient>		<path style="fill:url(#SVGID_00000183952237116979392150000005983085905255621526_);" d="M3023.8,853.5   c-32.7-21.4-54.4-58.3-54.4-100.4c0-66.2,53.7-119.9,120-119.9c14.1,0,27.6,2.4,40.1,6.9c22.8-52.9-50.8-66.9-50.8-66.9   c-4.8-10.1-25.9-15-41.7-17.3c-87.3,23.1-151.7,102.7-151.7,197.3c0,102.3,75.2,187,173.4,201.8   C3007.7,922.5,3017.6,872.7,3023.8,853.5z"></path>					<linearGradient id="SVGID_00000073688999260133004010000017819674317066445456_" gradientUnits="userSpaceOnUse" x1="3103.3787" y1="87.2347" x2="3187.4453" y2="420.3882" gradientTransform="matrix(1 0 0 1 0 476)">			<stop offset="0" style="stop-color:#5B80E9"></stop>			<stop offset="1" style="stop-color:#1DE1DA"></stop>		</linearGradient>		<path style="fill:url(#SVGID_00000073688999260133004010000017819674317066445456_);" d="M3090,549c23.8,11.8,49.9,28.8,55.7,51.1   c5,19.2-5.9,33.7-13.2,41c45,17.3,76.8,60.9,76.8,112c0,66.2-53.7,119.9-119.9,119.9c-20.1,0-39.1-5-55.7-13.7   c0.4,25,24.3,40.2,24.3,40.2l-20.2-6.8c5.7,24.4,37.9,33.7,37.9,33.7c-13-1-29.1-6.2-29.1-6.2c5.1,19.4,26,30.7,43.7,36.9   c112.3-0.5,203.2-91.7,203.2-204.1S3202.4,549.4,3090,549z"></path>	</g>			<linearGradient id="SVGID_00000135675900726812764190000002255521415619599542_" gradientUnits="userSpaceOnUse" x1="3212.0349" y1="-371.2635" x2="3212.0349" y2="922.5365" gradientTransform="matrix(1 0 0 1 0 476)">		<stop offset="0" style="stop-color:#5D7DE9"></stop>		<stop offset="1" style="stop-color:#19E8D9"></stop>	</linearGradient>	<path style="fill:url(#SVGID_00000135675900726812764190000002255521415619599542_);" d="M3759.7,748.5v-1.1  c-0.4-70.2-12.1-137.8-33.2-201c0-0.2-0.1-0.3-0.2-0.5c-61.4-183.3-202.7-329.9-382.4-398.6c-1.6-0.6-3.2-1.2-4.9-1.9  c-15.2-5.7-30-10.6-44.5-14.8c-45.7-13.3-93.5-21.8-142.7-24.7c-12.9-0.8-25.8-1.2-38.9-1.2h-448.6v128.7h440.4h5.9  c21.7,0,43.1,1.3,64.1,3.9c0.1,0,0.1,0,0.2,0c32,4.2,72.9,12.6,117.8,28.9c0.7,0.3,1.4,0.5,2.1,0.8  c195.4,74.3,334.3,263.3,334.3,484.8c0,0.7,0,1.5,0,2.2c-0.5,119.7-41.6,229.8-110.2,317.4c-2.2,2.8-4.5,5.7-6.8,8.5  c-11,13.4-22.6,26.3-34.9,38.6c-91.2,91.2-216.2,148.6-354.5,151.7c0,0,0,0-0.1,0c-4,0.1-8,0.1-12,0.1h-314.9V541.2h-131.4v729.3  v128h448.6c129.8,0,250.6-38.2,351.9-104c0.1,0,0.1-0.1,0.2-0.1c107.7-70,193.3-171.3,243.9-290.9c32.7-77.4,50.8-162.5,50.8-251.8  C3759.7,750.6,3759.7,749.5,3759.7,748.5z"></path></g><g>	<g>					<linearGradient id="SVGID_00000080186764364256097240000012372678951771285903_" gradientUnits="userSpaceOnUse" x1="669.8371" y1="-416.1729" x2="669.8371" y2="-43.0339" gradientTransform="matrix(1 0 0 1 0 976)">			<stop offset="0" style="stop-color:#5B80E9"></stop>			<stop offset="1" style="stop-color:#1DE1DA"></stop>		</linearGradient>		<path style="fill:url(#SVGID_00000080186764364256097240000012372678951771285903_);" d="M684.1,850.5   c-32.7-21.5-54.5-58.5-54.5-100.5c0-66.3,53.7-120.1,120.1-120.1c14,0,27.6,2.5,40.2,6.9c22.8-53-50.9-67-50.9-67   c-4.8-10.1-26-15.1-41.8-17.5C609.7,575.4,545.4,655.1,545.4,750c0,102.5,75.3,187.4,173.7,202.1   C667.9,919.6,677.9,869.8,684.1,850.5L684.1,850.5z"></path>					<linearGradient id="SVGID_00000182486397742191861580000005241379283841731487_" gradientUnits="userSpaceOnUse" x1="824.1471" y1="-416.1729" x2="824.1471" y2="-43.0339" gradientTransform="matrix(1 0 0 1 0 976)">			<stop offset="0" style="stop-color:#5B80E9"></stop>			<stop offset="1" style="stop-color:#1DE1DA"></stop>		</linearGradient>		<path style="fill:url(#SVGID_00000182486397742191861580000005241379283841731487_);" d="M750.3,545.5   c23.9,11.7,50.1,28.8,55.9,51.3c4.9,19.2-5.9,33.8-13.2,41.1c45,17.5,77,61,77,112.1c0,66.3-53.7,120.1-120.1,120.1   c-20.2,0-39.1-4.9-55.8-13.7c0.4,25.1,24.4,40.4,24.4,40.4l-20.3-6.8c5.7,24.4,37.9,33.8,37.9,33.8c-12.9-1.1-29.2-6.3-29.2-6.3   c5.2,19.4,26,30.8,43.8,37C863.1,954,954.2,862.7,954.2,750C954.2,637.2,862.9,545.8,750.3,545.5L750.3,545.5z"></path>	</g>			<linearGradient id="SVGID_00000047022964820414726240000017840096206896667809_" gradientUnits="userSpaceOnUse" x1="170.0361" y1="-658.4363" x2="170.0361" y2="181.597" gradientTransform="matrix(1 0 0 1 0 976)">		<stop offset="0" style="stop-color:#3CB7B5"></stop>		<stop offset="1" style="stop-color:#41E298"></stop>	</linearGradient>			<rect x="105.6" y="320.8" style="fill:url(#SVGID_00000047022964820414726240000017840096206896667809_);" width="128.9" height="858.4"></rect>			<linearGradient id="SVGID_00000075853292575517506770000008648466700625355449_" gradientUnits="userSpaceOnUse" x1="170.1725" y1="-901.6353" x2="170.1725" y2="-724.5761" gradientTransform="matrix(1 0 0 1 -2.877207e-03 975.9958)">		<stop offset="0" style="stop-color:#5190E6"></stop>		<stop offset="1" style="stop-color:#1DE1DA"></stop>	</linearGradient>	<polygon style="fill:url(#SVGID_00000075853292575517506770000008648466700625355449_);" points="79,166.1 170.2,74.9 261.3,166.1   170.2,257.2  "></polygon>			<linearGradient id="SVGID_00000080912131484614720720000000183835845898390452_" gradientUnits="userSpaceOnUse" x1="255.2092" y1="356.8761" x2="85.5715" y2="356.8761" gradientTransform="matrix(1 0 0 1 1.537673e-03 975.9915)">		<stop offset="0" style="stop-color:#3CB7B5"></stop>		<stop offset="1" style="stop-color:#41E298"></stop>	</linearGradient>	<polygon style="fill:url(#SVGID_00000080912131484614720720000000183835845898390452_);" points="78.9,1332.8 170,1241.6   261.2,1332.8 170,1424.1  "></polygon>			<linearGradient id="SVGID_00000165204142714782187670000009523425210320222378_" gradientUnits="userSpaceOnUse" x1="872.6" y1="-884.0015" x2="872.6" y2="413.9029" gradientTransform="matrix(1 0 0 1 0 976)">		<stop offset="0" style="stop-color:#5D7DE9"></stop>		<stop offset="0.24" style="stop-color:#479EE3"></stop>		<stop offset="0.57" style="stop-color:#2EC6DE"></stop>		<stop offset="0.84" style="stop-color:#1EDEDA"></stop>		<stop offset="1" style="stop-color:#19E8D9"></stop>	</linearGradient>	<path style="fill:url(#SVGID_00000165204142714782187670000009523425210320222378_);" d="M1421.1,749.6  c0,212.2-102.1,400.7-259.9,518.8c-108.1,81-242.4,128.9-387.8,128.9H324.1V538.6H453v729.7h320.6  c286.4-0.1,518.7-232.4,518.7-518.8s-232.1-518.7-518.7-518.8H324.1V101.7h449.6c145.4,0,279.6,48.1,387.8,128.9  C1319,348.9,1421.1,537.3,1421.1,749.6L1421.1,749.6z"></path>			<linearGradient id="SVGID_00000122708640334497224450000004943074855800522128_" gradientUnits="userSpaceOnUse" x1="762.3467" y1="-652.8701" x2="762.3467" y2="195.5722" gradientTransform="matrix(1 0 0 1 0 976)">		<stop offset="0" style="stop-color:#3CB7B5"></stop>		<stop offset="1" style="stop-color:#41E298"></stop>	</linearGradient>	<path style="fill:url(#SVGID_00000122708640334497224450000004943074855800522128_);" d="M1200.6,750  c0,237.1-192.2,429.3-429.3,429.3l0,0l-226-0.1v-128.9l226,0.1l0,0c165.8,0,300.2-134.4,300.2-300.2S937.1,449.7,771.4,449.7l0,0  H324.1V320.8h447.3C1008.4,320.8,1200.6,513,1200.6,750L1200.6,750z"></path></g></svg>