<svg xmlns="http://www.w3.org/2000/svg" xmlns:xlink="http://www.w3.org/1999/xlink" id="Layer_1" x="0px" y="0px" viewBox="0 0 1500 1500" style="enable-background:new 0 0 1500 1500;" xml:space="preserve"><style type="text/css">	.st0{fill:url(#SVGID_1_);}	.st1{fill:url(#SVGID_00000027578248828199249580000001283763697622686141_);}	.st2{fill:url(#SVGID_00000137116739075039154330000010404021247479137714_);}	.st3{fill:url(#SVGID_00000049209694841518760510000000485944718573723056_);}	.st4{fill:url(#SVGID_00000086649784252615162990000012562760058981156280_);}	.st5{fill:url(#SVGID_00000027567101750303088790000012508228796876211380_);}	.st6{fill:url(#SVGID_00000058548932692117159990000015546284799584967336_);}	.st7{fill:url(#SVGID_00000134238938332030945840000002653110499730831515_);}	.st8{fill:url(#SVGID_00000068666181768636868340000009822501965963945368_);}	.st9{fill:url(#SVGID_00000005253452836125967360000012611975452049453989_);}	.st10{fill:url(#SVGID_00000177480753236521583440000000408146607359638949_);}	.st11{fill:url(#SVGID_00000016774375938573131320000003227962348962329244_);}	.st12{fill:url(#SVGID_00000020381456655215452200000007795528717011992224_);}	.st13{fill:url(#SVGID_00000064323530161282069830000016648044272591231374_);}	.st14{fill:url(#SVGID_00000166665841001002319450000007961665917184969112_);}	.st15{fill:url(#SVGID_00000160881633353619646200000016769769727994907326_);}	.st16{fill:url(#SVGID_00000015351051358816185740000014491646604376586370_);}	.st17{fill:url(#SVGID_00000084501646713108387640000002644707031634658691_);}	.st18{fill:url(#SVGID_00000168080228803090957590000007856539590771864235_);}	.st19{fill:url(#SVGID_00000068664931474894402490000015897922201264764582_);}	.st20{fill:url(#SVGID_00000147936418064574691310000011537211234861054900_);}	.st21{fill:url(#SVGID_00000047047076273554449810000013721408341483451050_);}	.st22{fill:url(#SVGID_00000025405463308323054700000016822776839141131423_);}	.st23{fill:url(#SVGID_00000070095398801228316050000007266178530463379328_);}	.st24{fill:url(#SVGID_00000148663377292582294740000006188483291595377313_);}	.st25{fill:url(#SVGID_00000176750396371633742680000015465461673325569945_);}</style><g>			<linearGradient id="SVGID_1_" gradientUnits="userSpaceOnUse" x1="646.7001" y1="90.82" x2="646.7001" y2="166.2" gradientTransform="matrix(1 0 0 1 0 952)">		<stop offset="0" style="stop-color:#19E7D9"></stop>		<stop offset="1" style="stop-color:#2BCADE"></stop>	</linearGradient>	<path class="st0" d="M640.7,1119.9h-24.6v-73.4h25.4c7.5,0,13.8,1.5,19.2,4.4c5.3,2.9,9.5,7.1,12.3,12.6c2.9,5.5,4.3,12,4.3,19.6  s-1.4,14.2-4.3,19.7s-7,9.7-12.5,12.7S648.4,1119.9,640.7,1119.9L640.7,1119.9z M627.6,1110.3h12.5c5.8,0,10.6-1.1,14.4-3.2  c3.8-2.1,6.7-5.2,8.6-9.2c1.9-4,2.9-8.9,2.9-14.8s-1-10.7-2.8-14.7s-4.7-7.1-8.4-9.1c-3.7-2.1-8.4-3.1-13.9-3.1h-13.2L627.6,1110.3  L627.6,1110.3L627.6,1110.3z"></path>			<linearGradient id="SVGID_00000041276431212612544290000017555380119013420966_" gradientUnits="userSpaceOnUse" x1="707.75" y1="90.82" x2="707.75" y2="166.2" gradientTransform="matrix(1 0 0 1 0 952)">		<stop offset="0" style="stop-color:#19E7D9"></stop>		<stop offset="1" style="stop-color:#2BCADE"></stop>	</linearGradient>	<path style="fill:url(#SVGID_00000041276431212612544290000017555380119013420966_);" d="M713.5,1046.5v73.4H702v-73.4H713.5z"></path>			<linearGradient id="SVGID_00000003097634850618912630000010979745617805064327_" gradientUnits="userSpaceOnUse" x1="767.2999" y1="90.82" x2="767.2999" y2="166.2" gradientTransform="matrix(1 0 0 1 0 952)">		<stop offset="0" style="stop-color:#19E7D9"></stop>		<stop offset="1" style="stop-color:#2BCADE"></stop>	</linearGradient>	<path style="fill:url(#SVGID_00000003097634850618912630000010979745617805064327_);" d="M740.6,1119.9v-73.4h27.1  c5.9,0,10.8,1,14.7,3.1s6.8,4.9,8.7,8.5s2.9,7.6,2.9,12.1s-1,8.6-2.9,12.2s-4.9,6.4-8.8,8.5c-3.9,2.1-8.8,3.1-14.7,3.1H749v-9.4  h17.6c3.7,0,6.8-0.6,9.1-1.9c2.3-1.2,4-3,5.1-5.1c1.1-2.2,1.6-4.7,1.6-7.4s-0.5-5.2-1.6-7.4c-1.1-2.2-2.8-3.8-5.1-5.1  c-2.3-1.2-5.4-1.8-9.2-1.8h-14.4v63.9L740.6,1119.9L740.6,1119.9L740.6,1119.9z"></path>			<linearGradient id="SVGID_00000103254842853961720590000009105259700832476313_" gradientUnits="userSpaceOnUse" x1="849.6" y1="90.82" x2="849.6" y2="166.2199" gradientTransform="matrix(1 0 0 1 0 952)">		<stop offset="0" style="stop-color:#19E7D9"></stop>		<stop offset="1" style="stop-color:#2BCADE"></stop>	</linearGradient>	<path style="fill:url(#SVGID_00000103254842853961720590000009105259700832476313_);" d="M883.9,1083.2c0,7.8-1.5,14.6-4.5,20.2  s-7,10-12.2,13s-11,4.5-17.6,4.5s-12.5-1.5-17.6-4.5c-5.2-3-9.2-7.4-12.2-13s-4.5-12.4-4.5-20.2s1.5-14.6,4.5-20.2s7-10,12.2-13  s11-4.5,17.6-4.5s12.4,1.5,17.6,4.5c5.2,3,9.2,7.3,12.2,13S883.9,1075.4,883.9,1083.2z M872.5,1083.2c0-6-1-11-3-15.1  s-4.7-7.2-8.2-9.3c-3.5-2.1-7.4-3.2-11.7-3.2s-8.3,1.1-11.7,3.2s-6.2,5.2-8.2,9.3c-2,4.1-3,9.1-3,15.1s1,11,3,15.1s4.7,7.2,8.2,9.3  c3.4,2.1,7.3,3.2,11.7,3.2s8.3-1.1,11.7-3.2c3.5-2.1,6.2-5.2,8.2-9.3C871.5,1094.2,872.5,1089.2,872.5,1083.2z"></path></g><g>	<g>					<linearGradient id="SVGID_00000082326330325997256090000013962821114332964489_" gradientUnits="userSpaceOnUse" x1="268.4" y1="233.7" x2="268.4" y2="295.06" gradientTransform="matrix(1 0 0 1 0 952)">			<stop offset="0" style="stop-color:#3CB0E2"></stop>			<stop offset="1" style="stop-color:#4F92E6"></stop>		</linearGradient>		<path style="fill:url(#SVGID_00000082326330325997256090000013962821114332964489_);" d="M239.4,1193.4v-9.1h58v9.1H274v60.7   h-11.3v-60.7H239.4L239.4,1193.4z"></path>					<linearGradient id="SVGID_00000087394126302965423230000016449355970005362822_" gradientUnits="userSpaceOnUse" x1="348.15" y1="233.7" x2="348.15" y2="295.06" gradientTransform="matrix(1 0 0 1 0 952)">			<stop offset="0" style="stop-color:#3CB0E2"></stop>			<stop offset="1" style="stop-color:#4F92E6"></stop>		</linearGradient>		<path style="fill:url(#SVGID_00000087394126302965423230000016449355970005362822_);" d="M320.4,1254.1v-69.8h26.7   c5.8,0,10.6,0.9,14.5,2.8s6.7,4.4,8.6,7.7c1.9,3.3,2.9,7.1,2.9,11.4s-1,8-2.9,11.3s-4.8,5.8-8.6,7.6c-3.8,1.8-8.7,2.7-14.5,2.7   h-20.2v-9.1H346c3.7,0,6.6-0.5,8.9-1.5s4-2.4,5.1-4.3s1.6-4.1,1.6-6.7s-0.5-4.9-1.6-6.8s-2.8-3.4-5.1-4.4c-2.3-1-5.3-1.6-9-1.6   h-14.2v60.7L320.4,1254.1L320.4,1254.1z M357.4,1222.6l18.5,31.5H363l-18.1-31.5H357.4z"></path>					<linearGradient id="SVGID_00000078035091249446732590000012217502528076013199_" gradientUnits="userSpaceOnUse" x1="424.9" y1="233.7" x2="424.9" y2="295.06" gradientTransform="matrix(1 0 0 1 0 952)">			<stop offset="0" style="stop-color:#3CB0E2"></stop>			<stop offset="1" style="stop-color:#4F92E6"></stop>		</linearGradient>		<path style="fill:url(#SVGID_00000078035091249446732590000012217502528076013199_);" d="M403.4,1254.1h-12l27-69.8h13l27,69.8   h-12l-21.2-57.1h-0.6L403.4,1254.1L403.4,1254.1z M405.4,1226.8h38.9v8.9h-38.9V1226.8z"></path>					<linearGradient id="SVGID_00000067233392286043911010000010042230360727649431_" gradientUnits="userSpaceOnUse" x1="509.6" y1="233.7" x2="509.6" y2="295.06" gradientTransform="matrix(1 0 0 1 0 952)">			<stop offset="0" style="stop-color:#3CB0E2"></stop>			<stop offset="1" style="stop-color:#4F92E6"></stop>		</linearGradient>		<path style="fill:url(#SVGID_00000067233392286043911010000010042230360727649431_);" d="M503.7,1254.1h-24.2v-69.8h25   c7.3,0,13.6,1.4,18.9,4.2c5.3,2.8,9.3,6.8,12.1,12s4.2,11.4,4.2,18.7s-1.4,13.5-4.3,18.7s-6.9,9.2-12.3,12   C517.8,1252.7,511.3,1254.1,503.7,1254.1L503.7,1254.1z M490.8,1244.9h12.3c5.7,0,10.4-1,14.2-3s6.6-4.9,8.5-8.8   c1.9-3.8,2.8-8.5,2.8-14s-0.9-10.1-2.8-13.9c-1.9-3.8-4.6-6.7-8.3-8.7s-8.2-3-13.7-3h-13L490.8,1244.9L490.8,1244.9L490.8,1244.9z   "></path>					<linearGradient id="SVGID_00000063590842644237258320000017329123610740002176_" gradientUnits="userSpaceOnUse" x1="569.75" y1="233.7" x2="569.75" y2="295.06" gradientTransform="matrix(1 0 0 1 0 952)">			<stop offset="0" style="stop-color:#3CB0E2"></stop>			<stop offset="1" style="stop-color:#4F92E6"></stop>		</linearGradient>		<path style="fill:url(#SVGID_00000063590842644237258320000017329123610740002176_);" d="M575.4,1184.3v69.8h-11.3v-69.8H575.4z"></path>					<linearGradient id="SVGID_00000077314690196637075650000018160776281225492412_" gradientUnits="userSpaceOnUse" x1="632.25" y1="233.7" x2="632.25" y2="295.06" gradientTransform="matrix(1 0 0 1 0 952)">			<stop offset="0" style="stop-color:#3CB0E2"></stop>			<stop offset="1" style="stop-color:#4F92E6"></stop>		</linearGradient>		<path style="fill:url(#SVGID_00000077314690196637075650000018160776281225492412_);" d="M662.5,1184.3v69.8h-10.4l-38.1-51.2   h-0.7v51.2H602v-69.8h10.5l38.1,51.2h0.7v-51.2H662.5z"></path>					<linearGradient id="SVGID_00000123400608785391758100000003877993669781673627_" gradientUnits="userSpaceOnUse" x1="719.65" y1="233.7" x2="719.65" y2="295.06" gradientTransform="matrix(1 0 0 1 0 952)">			<stop offset="0" style="stop-color:#3CB0E2"></stop>			<stop offset="1" style="stop-color:#4F92E6"></stop>		</linearGradient>		<path style="fill:url(#SVGID_00000123400608785391758100000003877993669781673627_);" d="M740,1206.4c-0.7-2.1-1.7-3.9-2.8-5.6   c-1.2-1.7-2.6-3.1-4.2-4.2c-1.6-1.2-3.5-2.1-5.6-2.7s-4.4-0.9-6.9-0.9c-4.2,0-8,1-11.4,3s-6.1,5-8,8.9c-2,3.9-2.9,8.7-2.9,14.3   s1,10.4,3,14.3s4.7,6.9,8.1,8.9s7.3,3,11.7,3c4.1,0,7.6-0.8,10.7-2.3c3-1.5,5.4-3.7,7.1-6.6c1.7-2.8,2.5-6.2,2.5-10l2.9,0.5h-21.4   v-8.7h29.4v7.9c0,5.9-1.3,10.9-4,15.2s-6.3,7.6-11,10s-10.1,3.5-16.1,3.5c-6.8,0-12.7-1.4-17.8-4.4c-5.1-2.9-9.1-7-11.9-12.4   s-4.3-11.7-4.3-19.1c0-5.6,0.8-10.6,2.5-15s4-8.2,7-11.3c3-3.1,6.6-5.5,10.6-7.1s8.5-2.5,13.4-2.5c4,0,7.8,0.6,11.3,1.7   s6.6,2.7,9.4,4.7s5,4.5,6.8,7.3s3,5.9,3.7,9.3L740,1206.4L740,1206.4L740,1206.4z"></path>					<linearGradient id="SVGID_00000000214378098494606720000005676634903170150321_" gradientUnits="userSpaceOnUse" x1="844.2" y1="233.7" x2="844.2" y2="295.06" gradientTransform="matrix(1 0 0 1 0 952)">			<stop offset="0" style="stop-color:#3CB0E2"></stop>			<stop offset="1" style="stop-color:#4F92E6"></stop>		</linearGradient>		<path style="fill:url(#SVGID_00000000214378098494606720000005676634903170150321_);" d="M876.5,1207h-11.4   c-0.4-2.3-1.3-4.3-2.5-6s-2.7-3.2-4.4-4.4c-1.7-1.2-3.7-2.1-5.8-2.7s-4.4-0.9-6.8-0.9c-4.3,0-8.2,1-11.6,3s-6.1,5-8,8.9   c-2,3.9-2.9,8.7-2.9,14.3s1,10.5,2.9,14.4s4.7,6.9,8.1,8.9s7.2,3,11.5,3c2.4,0,4.6-0.3,6.8-0.9c2.1-0.6,4.1-1.5,5.8-2.7   s3.2-2.6,4.4-4.3c1.2-1.7,2-3.7,2.5-5.9h11.4c-0.6,3.4-1.8,6.6-3.5,9.4c-1.7,2.9-4,5.3-6.7,7.4s-5.8,3.7-9.3,4.8   c-3.5,1.1-7.3,1.7-11.4,1.7c-6.5,0-12.3-1.4-17.3-4.3c-5.1-2.9-9.1-7-12-12.3s-4.4-11.8-4.4-19.2s1.5-13.8,4.4-19.2   s6.9-9.5,12-12.3s10.8-4.3,17.3-4.3c4,0,7.7,0.5,11.1,1.6c3.5,1.1,6.5,2.6,9.3,4.6s5,4.5,6.8,7.4S875.8,1203.3,876.5,1207   L876.5,1207z"></path>					<linearGradient id="SVGID_00000029042380508569679180000003557569095019805331_" gradientUnits="userSpaceOnUse" x1="931.6" y1="233.7" x2="931.6" y2="295.06" gradientTransform="matrix(1 0 0 1 0 952)">			<stop offset="0" style="stop-color:#3CB0E2"></stop>			<stop offset="1" style="stop-color:#4F92E6"></stop>		</linearGradient>		<path style="fill:url(#SVGID_00000029042380508569679180000003557569095019805331_);" d="M965.3,1219.2c0,7.4-1.5,13.8-4.4,19.2   c-2.9,5.3-6.9,9.5-12,12.3s-10.8,4.3-17.3,4.3s-12.3-1.4-17.3-4.3c-5.1-2.9-9.1-7-12-12.3c-2.9-5.4-4.4-11.8-4.4-19.2   s1.5-13.8,4.4-19.2s6.9-9.5,12-12.3s10.9-4.3,17.3-4.3s12.2,1.4,17.3,4.3s9.1,7,12,12.3C963.9,1205.4,965.3,1211.8,965.3,1219.2z    M954.2,1219.2c0-5.7-1-10.5-2.9-14.4c-2-3.9-4.6-6.8-8-8.9c-3.4-2-7.2-3-11.5-3s-8.2,1-11.5,3c-3.4,2-6.1,5-8,8.9   c-2,3.9-2.9,8.7-2.9,14.4s1,10.5,2.9,14.4s4.6,6.8,8,8.9s7.2,3,11.5,3s8.1-1,11.5-3s6.1-5,8-8.9S954.2,1224.9,954.2,1219.2z"></path>					<linearGradient id="SVGID_00000088847447277608717000000001634552118270576525_" gradientUnits="userSpaceOnUse" x1="991.3" y1="233.7" x2="991.3" y2="295.06" gradientTransform="matrix(1 0 0 1 0 952)">			<stop offset="0" style="stop-color:#3CB0E2"></stop>			<stop offset="1" style="stop-color:#4F92E6"></stop>		</linearGradient>		<path style="fill:url(#SVGID_00000088847447277608717000000001634552118270576525_);" d="M991.3,1254.7c-2,0-3.7-0.7-5.2-2   s-2.2-2.9-2.2-4.8s0.7-3.5,2.2-4.8c1.4-1.3,3.2-2,5.2-2s3.7,0.7,5.2,2s2.2,2.9,2.2,4.8c0,1.2-0.3,2.4-1,3.4s-1.5,1.9-2.7,2.5   C993.9,1254.4,992.7,1254.7,991.3,1254.7z"></path>					<linearGradient id="SVGID_00000075136183930743097420000004463166366970496910_" gradientUnits="userSpaceOnUse" x1="1022.7501" y1="233.7" x2="1022.7501" y2="295.06" gradientTransform="matrix(1 0 0 1 0 952)">			<stop offset="0" style="stop-color:#3CB0E2"></stop>			<stop offset="1" style="stop-color:#4F92E6"></stop>		</linearGradient>		<path style="fill:url(#SVGID_00000075136183930743097420000004463166366970496910_);" d="M1030.3,1244.6l-0.6,3.7   c-0.4,2.7-1,5.6-1.8,8.5c-0.9,3-1.8,5.7-2.7,8.3s-1.7,4.6-2.2,6.1h-7.8c0.3-1.4,0.8-3.3,1.3-5.7s1.1-5.1,1.7-8   c0.5-2.9,0.9-6,1.2-9l0.4-3.8L1030.3,1244.6L1030.3,1244.6z"></path>					<linearGradient id="SVGID_00000006674862202290089430000005878674297081518504_" gradientUnits="userSpaceOnUse" x1="1087" y1="233.7" x2="1087" y2="295.06" gradientTransform="matrix(1 0 0 1 0 952)">			<stop offset="0" style="stop-color:#3CB0E2"></stop>			<stop offset="1" style="stop-color:#4F92E6"></stop>		</linearGradient>		<path style="fill:url(#SVGID_00000006674862202290089430000005878674297081518504_);" d="M1064.4,1254.1v-69.8h11.3v60.7h33.9v9.1   L1064.4,1254.1L1064.4,1254.1z"></path>					<linearGradient id="SVGID_00000148655754371415492210000011373469095557196720_" gradientUnits="userSpaceOnUse" x1="1148.3" y1="233.7" x2="1148.3" y2="295.06" gradientTransform="matrix(1 0 0 1 0 952)">			<stop offset="0" style="stop-color:#3CB0E2"></stop>			<stop offset="1" style="stop-color:#4F92E6"></stop>		</linearGradient>		<path style="fill:url(#SVGID_00000148655754371415492210000011373469095557196720_);" d="M1119.3,1193.4v-9.1h58v9.1h-23.4v60.7   h-11.3v-60.7H1119.3L1119.3,1193.4z"></path>					<linearGradient id="SVGID_00000127754984966705139490000002973673740836785834_" gradientUnits="userSpaceOnUse" x1="1230.5" y1="233.7" x2="1230.5" y2="295.06" gradientTransform="matrix(1 0 0 1 0 952)">			<stop offset="0" style="stop-color:#3CB0E2"></stop>			<stop offset="1" style="stop-color:#4F92E6"></stop>		</linearGradient>		<path style="fill:url(#SVGID_00000127754984966705139490000002973673740836785834_);" d="M1224.6,1254.1h-24.2v-69.8h25   c7.3,0,13.6,1.4,18.9,4.2s9.3,6.8,12.1,12c2.8,5.2,4.2,11.4,4.2,18.7s-1.4,13.5-4.3,18.7s-6.9,9.2-12.3,12   C1238.7,1252.7,1232.2,1254.1,1224.6,1254.1L1224.6,1254.1z M1211.7,1244.9h12.3c5.7,0,10.4-1,14.2-3s6.6-4.9,8.5-8.8   c1.9-3.8,2.8-8.5,2.8-14s-0.9-10.1-2.8-13.9s-4.6-6.7-8.3-8.7c-3.7-2-8.2-3-13.7-3h-13V1244.9L1211.7,1244.9z"></path>	</g>			<linearGradient id="SVGID_00000137101823272608601930000007682528209739131531_" gradientUnits="userSpaceOnUse" x1="747.05" y1="233.7" x2="747.05" y2="295.06" gradientTransform="matrix(1 0 0 1 0 952)">		<stop offset="0" style="stop-color:#3CB0E2"></stop>		<stop offset="1" style="stop-color:#4F92E6"></stop>	</linearGradient>			<rect x="742" y="1218.4" style="fill:url(#SVGID_00000137101823272608601930000007682528209739131531_);" width="10.1" height="36.7"></rect></g><g>	<g>					<linearGradient id="SVGID_00000070079434101491948060000018178484042222423982_" gradientUnits="userSpaceOnUse" x1="704.938" y1="994.06" x2="704.938" y2="784.32" gradientTransform="matrix(1 0 0 -1 0 1500)">			<stop offset="0" style="stop-color:#5B80E9"></stop>			<stop offset="1" style="stop-color:#1DE1DA"></stop>		</linearGradient>		<path style="fill:url(#SVGID_00000070079434101491948060000018178484042222423982_);" d="M713,669.4   c-18.4-12.1-30.6-32.9-30.6-56.5c0-37.3,30.2-67.5,67.5-67.5c7.9,0,15.5,1.4,22.6,3.9c12.8-29.8-28.6-37.7-28.6-37.7   c-2.7-5.7-14.6-8.5-23.5-9.8c-49.2,13-85.4,57.8-85.4,111.1c0,57.6,42.3,105.3,97.6,113.6C703.9,708.2,709.5,680.2,713,669.4z"></path>					<linearGradient id="SVGID_00000114036968480065880920000017287904903800154497_" gradientUnits="userSpaceOnUse" x1="791.6599" y1="994.06" x2="791.6599" y2="784.32" gradientTransform="matrix(1 0 0 -1 0 1500)">			<stop offset="0" style="stop-color:#5B80E9"></stop>			<stop offset="1" style="stop-color:#1DE1DA"></stop>		</linearGradient>		<path style="fill:url(#SVGID_00000114036968480065880920000017287904903800154497_);" d="M750.2,497.9   c13.4,6.6,28.1,16.2,31.4,28.8c2.8,10.8-3.3,19-7.4,23.1c25.3,9.8,43.3,34.3,43.3,63c0,37.3-30.2,67.5-67.5,67.5   c-11.3,0-22-2.8-31.4-7.7c0.2,14.1,13.7,22.7,13.7,22.7l-11.4-3.8c3.2,13.7,21.3,19,21.3,19c-7.3-0.6-16.4-3.5-16.4-3.5   c2.9,10.9,14.6,17.3,24.6,20.8c63.2-0.3,114.4-51.6,114.4-114.9C864.8,549.5,813.5,498.1,750.2,497.9L750.2,497.9z"></path>	</g>			<linearGradient id="SVGID_00000142163860854566886870000000645446043542970545_" gradientUnits="userSpaceOnUse" x1="424.01" y1="1130.23" x2="424.01" y2="658.06" gradientTransform="matrix(1 0 0 -1 0 1500)">		<stop offset="0" style="stop-color:#3CB7B5"></stop>		<stop offset="1" style="stop-color:#41E298"></stop>	</linearGradient>			<rect x="387.8" y="371.5" style="fill:url(#SVGID_00000142163860854566886870000000645446043542970545_);" width="72.5" height="482.5"></rect>			<linearGradient id="SVGID_00000127039963058284797860000008633305898845458827_" gradientUnits="userSpaceOnUse" x1="424.0873" y1="1266.9299" x2="424.0873" y2="1167.4" gradientTransform="matrix(1 0 0 -1 3.433228e-03 1499.9952)">		<stop offset="0" style="stop-color:#5190E6"></stop>		<stop offset="1" style="stop-color:#1DE1DA"></stop>	</linearGradient>	<polygon style="fill:url(#SVGID_00000127039963058284797860000008633305898845458827_);" points="372.8,284.6 424.1,233.4   475.4,284.6 424.1,335.9  "></polygon>			<linearGradient id="SVGID_00000083800739493658205210000012421142016765696181_" gradientUnits="userSpaceOnUse" x1="471.89" y1="559.5551" x2="376.54" y2="559.5551" gradientTransform="matrix(1 0 0 -1 2.334498e-03 1499.9933)">		<stop offset="0" style="stop-color:#3CB7B5"></stop>		<stop offset="1" style="stop-color:#41E298"></stop>	</linearGradient>	<polygon style="fill:url(#SVGID_00000083800739493658205210000012421142016765696181_);" points="372.7,940.4 424,889.2   475.3,940.4 424,991.7  "></polygon>			<linearGradient id="SVGID_00000125564393751246283150000015948157483723391400_" gradientUnits="userSpaceOnUse" x1="818.91" y1="1257.02" x2="818.91" y2="527.49" gradientTransform="matrix(1 0 0 -1 0 1500)">		<stop offset="0" style="stop-color:#5D7DE9"></stop>		<stop offset="0.24" style="stop-color:#479EE3"></stop>		<stop offset="0.57" style="stop-color:#2EC6DE"></stop>		<stop offset="0.84" style="stop-color:#1EDEDA"></stop>		<stop offset="1" style="stop-color:#19E8D9"></stop>	</linearGradient>	<path style="fill:url(#SVGID_00000125564393751246283150000015948157483723391400_);" d="M1127.3,612.6  c0,119.3-57.4,225.2-146.1,291.7c-60.8,45.5-136.2,72.5-218,72.5H510.6V494h72.5v410.2h180.2c161-0.1,291.5-130.6,291.5-291.7  S924.2,321,763.2,320.9H510.6v-72.5h252.7c81.7,0,157.2,27,218,72.5C1069.9,387.4,1127.3,493.3,1127.3,612.6z"></path>			<linearGradient id="SVGID_00000083793089391689563960000010969393336714326671_" gradientUnits="userSpaceOnUse" x1="756.86" y1="1127.1" x2="756.86" y2="650.21" gradientTransform="matrix(1 0 0 -1 0 1500)">		<stop offset="0" style="stop-color:#3CB7B5"></stop>		<stop offset="1" style="stop-color:#41E298"></stop>	</linearGradient>	<path style="fill:url(#SVGID_00000083793089391689563960000010969393336714326671_);" d="M1003.3,612.8  c0,133.2-108,241.3-241.2,241.3l0,0H634v-72.5h128v0c93.2,0,168.8-75.5,168.8-168.8S855.2,444.1,762,444.1l0,0l-251.5,0v-72.5H762  C895.2,371.6,1003.3,479.6,1003.3,612.8z"></path></g></svg>